<svg width="24" height="24" viewBox="0 0 24 24" fill="none" xmlns="http://www.w3.org/2000/svg">
<path d="M1 12C0.99993 11.7091 1.06333 11.4216 1.18579 11.1577C1.30824 10.8938 1.4868 10.6598 1.709 10.472L8.709 4.47199C9.06999 4.1669 9.52736 3.99951 10 3.99951C10.4726 3.99951 10.93 4.1669 11.291 4.47199L18.291 10.472C18.5132 10.6598 18.6918 10.8938 18.8142 11.1577C18.9367 11.4216 19.0001 11.7091 19 12V21C19 21.5304 18.7893 22.0391 18.4142 22.4142C18.0391 22.7893 17.5304 23 17 23H3C2.46957 23 1.96086 22.7893 1.58579 22.4142C1.21071 22.0391 1 21.5304 1 21V12Z" stroke="black" stroke-width="2" stroke-linecap="round" stroke-linejoin="round"/>
<path d="M13 23V15C13 14.7348 12.8946 14.4804 12.7071 14.2929C12.5196 14.1054 12.2652 14 12 14H8C7.73478 14 7.48043 14.1054 7.29289 14.2929C7.10536 14.4804 7 14.7348 7 15V23" stroke="black" stroke-width="2" stroke-linecap="round" stroke-linejoin="round"/>
<path d="M14 1C14.6202 1 15.2229 1.19234 15.7266 1.54688L15.9365 1.70898L15.9414 1.71289L22.9365 7.70898L23.0586 7.81738C23.3355 8.07864 23.561 8.39104 23.7217 8.7373C23.9051 9.1328 24 9.56405 24 10V19C23.9999 19.7955 23.6836 20.5596 23.1211 21.1221C22.5585 21.6844 21.7954 22 21 22H19V20H21C21.265 20 21.5195 19.8952 21.707 19.708C21.8945 19.5206 21.9999 19.265 22 19V10C22 9.85478 21.9683 9.71086 21.9072 9.5791C21.8461 9.44726 21.7565 9.33019 21.6455 9.23633L21.6406 9.23145L14.6455 3.23535V3.23633C14.465 3.08378 14.2363 3 14 3C13.7637 3 13.535 3.08378 13.3545 3.23633L13.3535 3.23535L11.7236 4.63184L10.2539 3.25977L12.0586 1.71289L12.0635 1.70898C12.605 1.25135 13.291 1 14 1Z" fill="black"/>
</svg>
